<svg height="496pt" viewBox="-15 0 495 496" width="496pt" xmlns="http://www.w3.org/2000/svg"><path d="m312.5 24h-160c-53.019531 0-96 42.980469-96 96v72h352v-72c0-53.019531-42.980469-96-96-96zm0 0" fill="#4a5d67"/><path d="m272.5 336c.011719 12.691406 5.082031 24.851562 14.09375 33.785156s21.214844 13.90625 33.90625 13.808594l16 .40625h63.839844c35.433594 0 64.160156 28.726562 64.160156 64.160156v47.839844h-464v-47.839844c0-35.433594 28.726562-64.160156 64.160156-64.160156h63.839844l16-.40625c12.691406.097656 24.894531-4.875 33.90625-13.808594s14.082031-21.09375 14.09375-33.785156v-32h80zm0 0" fill="#f7cca9"/><path d="m273.621094 346.214844c-.742188-3.355469-1.117188-6.777344-1.121094-10.214844v-32h-80v32c-.003906 3.4375-.378906 6.859375-1.121094 10.214844 26.871094 7.714844 55.371094 7.714844 82.242188 0zm0 0" fill="#efbb95"/><path d="m77.300781 152c-16.769531.929688-29.636719 15.226562-28.800781 32-.835938 16.773438 12.03125 31.070312 28.800781 32h19.199219v-64zm0 0" fill="#efbb95"/><path d="m387.699219 152h-19.199219v64h19.199219c16.769531-.929688 29.636719-15.226562 28.800781-32 .835938-16.773438-12.03125-31.070312-28.800781-32zm0 0" fill="#efbb95"/><path d="m232.5 336c-83.949219 0-152-68.050781-152-152s68.050781-152 152-152 152 68.050781 152 152-68.050781 152-152 152" fill="#f7cca9"/><path d="m352.5 216c0 13.253906-10.746094 24-24 24s-24-10.746094-24-24 10.746094-24 24-24 24 10.746094 24 24zm0 0" fill="#f4b8b2"/><path d="m160.5 216c0 13.253906-10.746094 24-24 24s-24-10.746094-24-24 10.746094-24 24-24 24 10.746094 24 24zm0 0" fill="#f4b8b2"/><g fill="#915c39"><path d="m160.5 184c-8.835938 0-16-7.164062-16-16s7.164062-16 16-16 16 7.164062 16 16-7.164062 16-16 16zm0-16"/><path d="m120.5 168c-4.417969 0-8-3.582031-8-8 .027344-22.082031 17.917969-39.972656 40-40 4.417969 0 8 3.582031 8 8s-3.582031 8-8 8c-13.253906 0-24 10.746094-24 24 0 4.417969-3.582031 8-8 8zm0 0"/><path d="m304.5 184c-8.835938 0-16-7.164062-16-16s7.164062-16 16-16 16 7.164062 16 16-7.164062 16-16 16zm0-16"/><path d="m344.5 168c-4.417969 0-8-3.582031-8-8 0-13.253906-10.746094-24-24-24-4.417969 0-8-3.582031-8-8s3.582031-8 8-8c22.082031.027344 39.972656 17.917969 40 40 0 4.417969-3.582031 8-8 8zm0 0"/><path d="m240.5 184h-16c-2.773438 0-5.347656-1.433594-6.808594-3.792969-1.457031-2.355469-1.589844-5.300781-.351562-7.78125l8-16c1.976562-3.957031 6.78125-5.5625 10.734375-3.585937 3.957031 1.976562 5.5625 6.78125 3.585937 10.734375l-2.214844 4.425781h3.054688c4.417969 0 8 3.582031 8 8s-3.582031 8-8 8zm0 0"/></g><path d="m168.890625 0h159.609375v16c0 35.347656-28.652344 64-64 64h-88c-22.089844 0-40-17.910156-40-40v-7.609375c0-17.886719 14.503906-32.390625 32.390625-32.390625zm0 0" fill="#4a5d67"/><path d="m400.339844 384h-63.839844l-16-.40625c-8.441406.003906-16.738281-2.203125-24.0625-6.402344-.554688 34.917969-29.015625 62.933594-63.9375 62.933594s-63.382812-28.015625-63.9375-62.933594c-7.324219 4.199219-15.621094 6.40625-24.0625 6.402344l-16 .40625h-63.839844c-35.433594 0-64.160156 28.726562-64.160156 64.160156v47.839844h464v-47.839844c0-35.433594-28.726562-64.160156-64.160156-64.160156zm0 0" fill="#b27680"/><path d="m320.5 216c-35.347656 0-64-28.652344-64-64s28.652344-64 64-64 64 28.652344 64 64c-.039062 35.328125-28.671875 63.960938-64 64zm0-112c-26.507812 0-48 21.492188-48 48s21.492188 48 48 48 48-21.492188 48-48c-.027344-26.5-21.5-47.972656-48-48zm0 0" fill="#534741"/><path d="m192.5 120h80v16h-80zm0 0" fill="#534741"/><path d="m144.5 216c-35.347656 0-64-28.652344-64-64s28.652344-64 64-64 64 28.652344 64 64c-.039062 35.328125-28.671875 63.960938-64 64zm0-112c-26.507812 0-48 21.492188-48 48s21.492188 48 48 48 48-21.492188 48-48c-.027344-26.5-21.5-47.972656-48-48zm0 0" fill="#534741"/><path d="m232.5 248c-17.648438 0-32-17.945312-32-40 0-4.417969 3.582031-8 8-8s8 3.582031 8 8c0 13.007812 7.328125 24 16 24s16-10.992188 16-24c0-4.417969 3.582031-8 8-8s8 3.582031 8 8c0 22.054688-14.351562 40-32 40zm0 0" fill="#e5703e"/></svg>